<svg width="10" height="18" viewBox="0 0 10 18" fill="none" xmlns="http://www.w3.org/2000/svg">
<path d="M7.87305 0H1.45898C0.65625 0 0 0.65625 0 1.45898V16.043C0 16.8457 0.65625 17.502 1.45898 17.502H7.875C8.67773 17.502 9.33398 16.8457 9.33398 16.043V1.45898C9.33203 0.65625 8.67578 0 7.87305 0ZM3.79102 1.16602H5.54102C5.70117 1.16602 5.83203 1.29688 5.83203 1.45703C5.83203 1.61719 5.70117 1.74805 5.54102 1.74805H3.79102C3.63086 1.74805 3.5 1.61719 3.5 1.45703C3.5 1.29688 3.63086 1.16602 3.79102 1.16602ZM4.66602 16.916C4.18164 16.916 3.79102 16.5254 3.79102 16.041C3.79102 15.5566 4.18164 15.166 4.66602 15.166C5.15039 15.166 5.54102 15.5566 5.54102 16.041C5.54102 16.5254 5.15039 16.916 4.66602 16.916ZM8.75 14.584H0.583984V2.91602H8.75V14.584Z" fill="white"/>
</svg>
