<svg width="22" height="22" viewBox="0 0 22 22" fill="none" xmlns="http://www.w3.org/2000/svg">
<path d="M12 15C12 13.3431 13.3431 12 15 12H19C20.6569 12 22 13.3431 22 15V19C22 20.6569 20.6569 22 19 22H15C13.3431 22 12 20.6569 12 19V15Z" fill="#F7F5F5"/>
<path d="M0 15C0 13.3431 1.34315 12 3 12H7C8.65685 12 10 13.3431 10 15V19C10 20.6569 8.65685 22 7 22H3C1.34315 22 0 20.6569 0 19V15Z" fill="#F7F5F5"/>
<path d="M12 3C12 1.34315 13.3431 0 15 0H19C20.6569 0 22 1.34315 22 3V7C22 8.65685 20.6569 10 19 10H15C13.3431 10 12 8.65685 12 7V3Z" fill="#F7F5F5"/>
<path d="M0 3C0 1.34315 1.34315 0 3 0H7C8.65685 0 10 1.34315 10 3V7C10 8.65685 8.65685 10 7 10H3C1.34315 10 0 8.65685 0 7V3Z" fill="#F7F5F5"/>
</svg>
