<svg width="12" height="12" viewBox="0 0 12 12" fill="none" xmlns="http://www.w3.org/2000/svg">
<path d="M5.99998 0.183731C2.78217 0.183731 0.173645 2.79227 0.173645 6.01008C0.173645 9.2279 2.78217 11.8364 5.99997 11.8364C9.21778 11.8364 11.8263 9.2279 11.8263 6.01008C11.8263 2.79227 9.21781 0.183731 6 0.183731H5.99998ZM8.49855 7.75331C8.70712 7.96193 8.70712 8.30007 8.49855 8.50865C8.28998 8.71721 7.95178 8.71721 7.74321 8.50865L5.99998 6.76542L4.2567 8.50864C4.04812 8.7172 3.71 8.7172 3.50143 8.50864C3.29279 8.30006 3.29279 7.96192 3.50143 7.75329L5.24464 6.01008L3.50142 4.26685C3.29279 4.05828 3.29279 3.72009 3.50142 3.51152C3.71 3.30295 4.04812 3.30295 4.25669 3.51152L5.99998 5.25474L7.74321 3.51152C7.95178 3.30295 8.28998 3.30295 8.49855 3.51152C8.70712 3.72009 8.70712 4.05828 8.49855 4.26685L6.75532 6.01008L8.49855 7.75331Z" fill="#808080"/>
</svg>
