<svg width="135" height="107" viewBox="0 0 135 107" fill="none" xmlns="http://www.w3.org/2000/svg">
<path d="M95.5 43.5C95.5 62.6755 80.3815 78 62 78C43.6185 78 28.5 62.6755 28.5 43.5C28.5 24.3245 43.6185 9 62 9C80.3815 9 95.5 24.3245 95.5 43.5Z" stroke="#808080" stroke-width="10"/>
<line x1="88.7924" y1="71.6763" x2="108.591" y2="91.4753" stroke="#808080" stroke-width="12" stroke-linecap="round"/>
<path d="M33 104.385L44.3137 93.0711M33.3284 93L44.6421 104.314" stroke="#999999" stroke-width="4" stroke-linecap="round"/>
<path d="M113.957 19.9929L113.957 13.1213M110.6 16.4358L117.471 16.4358" stroke="#B3B3B3" stroke-width="2" stroke-linecap="round"/>
<path d="M74.9574 100.993L74.9574 94.1213M71.5997 97.4358L78.4713 97.4358" stroke="#B3B3B3" stroke-width="2" stroke-linecap="round"/>
<path d="M5.95738 59.9929L5.95738 53.1213M2.59974 56.4358L9.47133 56.4358" stroke="#B3B3B3" stroke-width="2" stroke-linecap="round"/>
<path d="M2 13.3848L13.3137 2.07106M2.32843 2L13.6421 13.3137" stroke="#999999" stroke-width="4" stroke-linecap="round"/>
<path d="M121 49.3848L132.314 38.0711M121.328 38L132.642 49.3137" stroke="#999999" stroke-width="4" stroke-linecap="round"/>
<path d="M52.5 53.9599L72.4599 34M52.5401 34.2407L72.5 54.2006" stroke="#FF5833" stroke-width="6" stroke-linecap="round"/>
</svg>
